<svg version="1.1" xmlns="http://www.w3.org/2000/svg" xmlns:xlink="http://www.w3.org/1999/xlink" width="512px" height="512px" viewBox="0,0,256,256"><g fill="#ffffff" fill-rule="nonzero" stroke="none" stroke-width="1" stroke-linecap="butt" stroke-linejoin="miter" stroke-miterlimit="10" stroke-dasharray="" stroke-dashoffset="0" font-family="none" font-weight="none" font-size="none" text-anchor="none" style="mix-blend-mode: normal"><g transform="translate(0.00179,-0.00602) scale(0.5,0.5)"><path d="M464.34,256.1c-1.19,-86.7 -54.26,-164.33 -135.54,-195.31c-81.8,-31.2 -178.34,-5.18 -233.7,62.5c-55.1,67.37 -63.44,164.4 -18.56,239.5c44.78,74.95 132.57,113.56 218.08,98.21c97.48,-17.54 167.27,-105.12 169.64,-202.63c0.06,-0.76 0.09,-1.5 0.08,-2.27zM314,416.59c-67.8,24.3 -144.8,3 -190.53,-52.58c-45.1,-54.87 -50.47,-134.66 -14.19,-195.46c36.11,-60.43 108.4,-93.55 177.79,-80.29c80.67,15.44 138.23,86.25 139.35,167.84c-0.97,71.01 -44.85,136.27 -112.42,160.49z"></path><path d="M332.44,237.14h-57.7v-57.7c0,-24.4 -37.92,-24.44 -37.92,0v57.7h-57.69c-24.4,0 -24.44,37.92 0,37.92h57.69v57.69c0,24.4 37.92,24.44 37.92,0v-57.69h57.7c24.4,0 24.44,-37.92 0,-37.92z"></path></g></g></svg>