<?xml version="1.0" ?><svg data-name="Layer 1" id="Layer_1" viewBox="0 0 512 512" xmlns="http://www.w3.org/2000/svg"><title/><path d="M464.34,256.1C463.15,169.4,410.08,91.77,328.8,60.79,247,29.59,150.46,55.61,95.1,123.29,40,190.66,31.66,287.69,76.54,362.79,121.32,437.74,209.11,476.35,294.62,461c97.48-17.54,167.27-105.12,169.64-202.63C464.32,257.61,464.35,256.87,464.34,256.1ZM314,416.59c-67.8,24.3-144.8,3-190.53-52.58C78.37,309.14,73,229.35,109.28,168.55,145.39,108.12,217.68,75,287.07,88.26,367.74,103.7,425.3,174.51,426.42,256.1,425.45,327.11,381.57,392.37,314,416.59Z"/><path d="M332.44,237.14h-57.7v-57.7c0-24.4-37.92-24.44-37.92,0v57.7H179.13c-24.4,0-24.44,37.92,0,37.92h57.69v57.69c0,24.4,37.92,24.44,37.92,0V275.06h57.7C356.84,275.06,356.88,237.14,332.44,237.14Z"/></svg>